<?xml version="1.0" encoding="utf-8"?>
<!-- Generator: Adobe Illustrator 25.0.1, SVG Export Plug-In . SVG Version: 6.00 Build 0)  -->
<svg version="1.1" id="Layer_1" xmlns="http://www.w3.org/2000/svg" xmlns:xlink="http://www.w3.org/1999/xlink" x="0px" y="0px"
	 viewBox="0 0 106 19.6" style="enable-background:new 0 0 106 19.6;" xml:space="preserve">
<style type="text/css">
	.st0{enable-background:new    ;}
	.st1{fill:#282829;}
</style>
<g class="st0">
	<path class="st1" d="M0,19.2c0,0,0-0.1,0-0.2s0-0.2,0-0.2c0.4,0,0.8,0,1-0.1s0.4-0.3,0.5-0.5c0.1-0.3,0.2-0.7,0.3-1.2l2-12.3
		c0.1-0.8,0.1-1.3,0-1.5C3.6,3.1,3.2,3,2.6,3c0,0,0-0.1,0-0.2s0-0.2,0-0.2c0.4,0,0.8,0,1.2,0s0.9,0,1.4,0c0.5,0,1,0,1.5,0
		c0.5,0,0.9,0,1.2,0c0,0,0,0.1,0,0.2S8,3,7.9,3c-0.4,0-0.8,0-1,0.1C6.7,3.2,6.5,3.4,6.4,3.7C6.3,3.9,6.2,4.3,6.1,4.8L4.2,17
		c-0.1,0.7-0.1,1.2,0,1.4s0.4,0.3,0.9,0.3h0.6c1.2,0,2.2-0.3,3.1-1c0.9-0.6,1.7-1.6,2.4-3c0,0,0.1,0,0.2,0s0.1,0.1,0.1,0.1
		c-0.1,0.5-0.3,1.2-0.4,2c-0.2,0.8-0.3,1.5-0.4,2.1c0,0.3-0.2,0.4-0.4,0.4H0z"/>
	<path class="st1" d="M15.7,19.5c-0.9,0-1.7-0.3-2.2-0.8s-0.9-1.2-1-2c-0.2-0.8-0.2-1.6,0-2.5c0.1-0.7,0.4-1.4,0.7-2.1
		c0.3-0.7,0.8-1.3,1.3-1.8c0.5-0.5,1.1-1,1.8-1.3c0.7-0.3,1.4-0.5,2.1-0.5c0.7,0,1.1,0.1,1.5,0.4c0.3,0.2,0.5,0.6,0.4,1.1
		c0,0.5-0.3,0.9-0.6,1.3c-0.4,0.4-0.9,0.8-1.5,1.1c-0.6,0.3-1.3,0.6-2.1,0.9c-0.8,0.2-1.6,0.4-2.4,0.5l0-0.3c1.1-0.2,2.1-0.5,2.9-1
		c0.8-0.5,1.2-1.1,1.3-1.9c0.1-0.4,0-0.7-0.1-0.9c-0.1-0.2-0.3-0.3-0.6-0.3c-0.4,0-0.7,0.2-1,0.5s-0.6,0.9-0.8,1.5
		c-0.2,0.6-0.4,1.3-0.5,2.1c-0.1,0.9-0.1,1.7,0,2.5c0.1,0.7,0.4,1.3,0.7,1.8c0.4,0.4,0.9,0.7,1.6,0.7c0.3,0,0.7-0.1,1-0.2
		c0.4-0.1,0.8-0.3,1.1-0.6c0,0,0.1,0,0.1,0.1c0.1,0.1,0.1,0.1,0,0.2c-0.6,0.7-1.2,1.1-1.9,1.4C16.9,19.4,16.3,19.5,15.7,19.5z"/>
	<path class="st1" d="M24.2,19.5c-0.9,0-1.7-0.3-2.2-0.8s-0.9-1.2-1-2c-0.2-0.8-0.2-1.6,0-2.5c0.1-0.7,0.4-1.4,0.7-2.1
		c0.3-0.7,0.8-1.3,1.3-1.8c0.5-0.5,1.1-1,1.8-1.3c0.7-0.3,1.4-0.5,2.1-0.5c0.7,0,1.1,0.1,1.5,0.4c0.3,0.2,0.5,0.6,0.4,1.1
		c0,0.5-0.3,0.9-0.6,1.3c-0.4,0.4-0.9,0.8-1.5,1.1c-0.6,0.3-1.3,0.6-2.1,0.9c-0.8,0.2-1.6,0.4-2.4,0.5l0-0.3c1.1-0.2,2.1-0.5,2.9-1
		c0.8-0.5,1.2-1.1,1.3-1.9c0.1-0.4,0-0.7-0.1-0.9c-0.1-0.2-0.3-0.3-0.6-0.3c-0.4,0-0.7,0.2-1,0.5s-0.6,0.9-0.8,1.5
		c-0.2,0.6-0.4,1.3-0.5,2.1c-0.1,0.9-0.1,1.7,0,2.5c0.1,0.7,0.4,1.3,0.7,1.8c0.4,0.4,0.9,0.7,1.6,0.7c0.3,0,0.7-0.1,1-0.2
		c0.4-0.1,0.8-0.3,1.1-0.6c0,0,0.1,0,0.1,0.1c0.1,0.1,0.1,0.1,0,0.2c-0.6,0.7-1.2,1.1-1.9,1.4C25.5,19.4,24.8,19.5,24.2,19.5z"/>
	<path class="st1" d="M33.6,19.5c-0.6,0-1.2-0.1-1.8-0.2c-0.6-0.1-1.2-0.4-1.9-0.7c-0.1-0.1-0.1-0.1-0.1-0.2c0-0.1,0-0.2,0-0.3
		l0.8-3.7c0-0.1,0-0.1,0.1-0.1s0.1,0,0.2,0.1c0.2,1,0.5,1.9,0.8,2.5c0.3,0.7,0.7,1.2,1.1,1.5s0.9,0.5,1.5,0.5c0.5,0,0.9-0.1,1.2-0.3
		c0.4-0.2,0.7-0.5,0.9-0.9c0.2-0.4,0.4-0.9,0.5-1.5c0.1-0.7,0.1-1.4-0.2-2c-0.2-0.6-0.6-1.1-1-1.5c-0.4-0.5-0.9-0.9-1.4-1.3
		c-0.5-0.4-1-0.9-1.4-1.3s-0.8-1-1-1.5c-0.2-0.6-0.3-1.3-0.2-2c0.2-0.9,0.5-1.7,1.1-2.3c0.5-0.6,1.2-1.1,1.9-1.4
		c0.8-0.3,1.5-0.5,2.3-0.5c0.4,0,0.9,0,1.4,0.1c0.5,0.1,1,0.3,1.5,0.5c0.2,0.1,0.3,0.3,0.3,0.5l-0.4,3.4C39.8,7,39.7,7,39.6,7
		c-0.1,0-0.1,0-0.1-0.1c-0.2-0.8-0.4-1.5-0.7-2.1s-0.7-1-1.1-1.4s-0.9-0.5-1.3-0.5s-0.9,0.1-1.2,0.4c-0.3,0.2-0.6,0.6-0.7,0.9
		c-0.2,0.4-0.3,0.7-0.4,1.1C34,6,34,6.6,34.2,7.1c0.2,0.5,0.5,1,1,1.4c0.4,0.4,0.9,0.8,1.3,1.2c0.5,0.4,1,0.9,1.5,1.4
		c0.5,0.5,0.9,1.1,1.1,1.7c0.3,0.6,0.3,1.4,0.2,2.2c-0.1,0.8-0.5,1.6-0.9,2.3c-0.5,0.7-1.1,1.2-1.9,1.6
		C35.7,19.3,34.7,19.5,33.6,19.5z"/>
	<path class="st1" d="M44.1,19.5c-0.9,0-1.7-0.3-2.2-0.8s-0.9-1.2-1-2c-0.2-0.8-0.2-1.6,0-2.5c0.1-0.7,0.4-1.4,0.7-2.1
		c0.3-0.7,0.8-1.3,1.3-1.8c0.5-0.5,1.1-1,1.8-1.3c0.7-0.3,1.4-0.5,2.1-0.5c0.7,0,1.1,0.1,1.5,0.4c0.3,0.2,0.5,0.6,0.4,1.1
		c0,0.5-0.3,0.9-0.6,1.3c-0.4,0.4-0.9,0.8-1.5,1.1c-0.6,0.3-1.3,0.6-2.1,0.9c-0.8,0.2-1.6,0.4-2.4,0.5l0-0.3c1.1-0.2,2.1-0.5,2.9-1
		c0.8-0.5,1.2-1.1,1.3-1.9c0.1-0.4,0-0.7-0.1-0.9c-0.1-0.2-0.3-0.3-0.6-0.3c-0.4,0-0.7,0.2-1,0.5s-0.6,0.9-0.8,1.5
		c-0.2,0.6-0.4,1.3-0.5,2.1c-0.1,0.9-0.1,1.7,0,2.5c0.1,0.7,0.4,1.3,0.7,1.8c0.4,0.4,0.9,0.7,1.6,0.7c0.3,0,0.7-0.1,1-0.2
		c0.4-0.1,0.8-0.3,1.1-0.6c0,0,0.1,0,0.1,0.1c0.1,0.1,0.1,0.1,0,0.2c-0.6,0.7-1.2,1.1-1.9,1.4C45.3,19.4,44.7,19.5,44.1,19.5z"/>
	<path class="st1" d="M52.6,19.6c-0.9,0-1.6-0.3-2.1-0.8s-0.9-1.2-1-2c-0.2-0.8-0.2-1.7,0-2.7c0.2-1.1,0.5-2,1.1-2.8
		c0.5-0.8,1.1-1.5,1.9-1.9c0.7-0.5,1.5-0.7,2.4-0.7c0.9,0,1.6,0.2,2.1,0.7c0.5,0.5,0.9,1.1,1.1,2c0.2,0.8,0.2,1.7,0,2.8
		c-0.2,1.2-0.6,2.2-1.2,3c-0.6,0.8-1.2,1.4-2,1.8C54.1,19.4,53.4,19.6,52.6,19.6z M53.4,18.9c0.5,0,1-0.3,1.3-1
		c0.4-0.7,0.7-1.6,0.8-2.7c0.1-0.8,0.2-1.5,0.2-2.3c0-0.7-0.1-1.4-0.2-1.9c-0.1-0.6-0.3-1-0.6-1.3S54.4,9.3,54,9.3
		c-0.4,0-0.9,0.3-1.2,0.9c-0.4,0.6-0.7,1.5-0.9,2.8c-0.1,0.8-0.2,1.6-0.2,2.3c0,0.7,0.1,1.4,0.2,1.9c0.1,0.5,0.3,1,0.6,1.3
		C52.8,18.8,53.1,18.9,53.4,18.9z"/>
	<path class="st1" d="M60,19.4c-0.3,0-0.5,0-0.6-0.1s-0.2-0.1-0.2-0.1c0-0.1,0-0.3,0.1-0.7s0.2-0.8,0.2-1.3l2.3-13.6
		C62,2.8,62,2.3,61.8,2.1c-0.2-0.2-0.6-0.1-1.3,0.3c-0.1,0-0.1,0-0.1-0.1c0-0.1,0-0.2,0-0.2l3.7-2c0.1,0,0.1,0,0.2,0
		c0.1,0.1,0.1,0.1,0.1,0.2l-2.2,13.6l-0.8,5.1C61.3,19.3,60.9,19.4,60,19.4z M61.6,14.6v-0.5c0.9-0.2,1.7-0.5,2.3-0.8
		c0.6-0.3,1-0.6,1.3-1c0.3-0.4,0.5-0.9,0.5-1.4c0-0.4,0-0.7-0.1-0.9c-0.1-0.2-0.3-0.3-0.6-0.3c-0.6,0-1.2,0.4-1.7,1.1
		c-0.5,0.7-0.9,1.7-1.1,2.9l-1.1-1c0.4-0.8,0.9-1.5,1.5-2.1c0.6-0.6,1.2-1.1,1.9-1.5c0.7-0.4,1.4-0.6,2.1-0.6c0.5,0,0.9,0.1,1.1,0.3
		c0.2,0.2,0.4,0.4,0.4,0.6c0.1,0.2,0.1,0.5,0,0.7c-0.1,0.6-0.4,1.1-0.9,1.7c-0.5,0.6-1.3,1.1-2.2,1.6C64,14,62.9,14.4,61.6,14.6z
		 M66.2,19.5c-0.4,0-0.8-0.1-1.1-0.4s-0.7-0.7-1-1.4l-1.4-2.5c-0.2-0.3-0.3-0.5-0.4-0.6c-0.1-0.1-0.4,0-0.7,0.1l2.5-1.1l1.7,3
		c0.3,0.6,0.6,1,0.8,1.2s0.4,0.3,0.6,0.3c0.2,0,0.4-0.1,0.6-0.2c0.2-0.1,0.5-0.3,0.7-0.5c0.1-0.1,0.1-0.1,0.2,0
		c0.1,0.1,0.1,0.1,0,0.2C67.7,18.8,66.8,19.5,66.2,19.5z"/>
	<path class="st1" d="M74.8,19.2L71.6,4.9c-0.2-0.7-0.3-1.2-0.5-1.5C70.9,3.1,70.6,3,70.2,3c0,0-0.1-0.1-0.1-0.2s0-0.2,0.1-0.2
		c0.4,0,0.7,0,1.1,0c0.4,0,0.8,0,1.1,0c0.5,0,1,0,1.4,0s0.7,0,1,0c0.1,0,0.1,0.1,0.1,0.2s0,0.2-0.1,0.2c-0.3,0-0.5,0.1-0.7,0.3
		S73.9,4,74,4.6l2.5,11.6l-1.6,2.6l4.3-9.3l0.4,0.7l-4.2,9c0,0.1-0.2,0.1-0.3,0.1C74.9,19.3,74.8,19.3,74.8,19.2z M80.4,19.2
		L77.2,4.9c-0.2-0.7-0.3-1.2-0.5-1.5C76.6,3.1,76.4,3,76.1,3C76,3,76,2.9,76,2.8s0-0.2,0.1-0.2c0.3,0,0.6,0,1,0s0.7,0,1,0
		c0.4,0,0.8,0,1.1,0s0.6,0,0.8,0C80,2.7,80,2.7,80,2.8S80,3,79.9,3c-0.3,0-0.4,0.1-0.5,0.3c0,0.2,0,0.6,0.2,1.4l2.5,11.6l-1.6,2.6
		l6-13.1C86.9,5,87,4.3,86.9,3.8C86.8,3.3,86.4,3,85.8,3c0,0-0.1-0.1-0.1-0.2s0-0.2,0.1-0.2c0.4,0,0.7,0,1.1,0c0.3,0,0.8,0,1.3,0
		c0.4,0,0.8,0,1.1,0c0.3,0,0.6,0,1,0c0,0,0.1,0.1,0.1,0.2s0,0.2-0.1,0.2c-0.3,0-0.6,0.1-0.9,0.2c-0.3,0.1-0.6,0.4-1,0.8
		s-0.7,1-1.1,1.9L81,19.2c0,0.1-0.2,0.1-0.3,0.1C80.5,19.3,80.4,19.3,80.4,19.2z M80,10.2l-0.4-0.7l1.8-3.8C81.8,4.8,82,4.1,82,3.7
		S81.7,3,81.3,3c0,0,0-0.1,0-0.2s0-0.2,0-0.2c0.3,0,0.5,0,0.8,0s0.6,0,1,0c0.4,0,0.7,0,0.9,0c0.2,0,0.5,0,0.8,0
		c0.1,0,0.1,0.1,0.1,0.2s0,0.2-0.1,0.2c-0.3,0-0.5,0.1-0.8,0.2c-0.2,0.1-0.5,0.4-0.8,0.8c-0.3,0.4-0.6,1-1,1.9L80,10.2z"/>
	<path class="st1" d="M90.7,19.6c-0.9,0-1.6-0.3-2.1-0.8c-0.5-0.5-0.9-1.2-1-2c-0.2-0.8-0.2-1.7,0-2.7c0.2-1.1,0.5-2,1.1-2.8
		c0.5-0.8,1.1-1.5,1.9-1.9c0.7-0.5,1.5-0.7,2.4-0.7c0.9,0,1.6,0.2,2.1,0.7c0.5,0.5,0.9,1.1,1.1,2s0.2,1.7,0,2.8
		c-0.2,1.2-0.6,2.2-1.2,3c-0.6,0.8-1.2,1.4-2,1.8C92.2,19.4,91.5,19.6,90.7,19.6z M91.6,18.9c0.5,0,1-0.3,1.3-1
		c0.4-0.7,0.7-1.6,0.8-2.7c0.1-0.8,0.2-1.5,0.2-2.3c0-0.7-0.1-1.4-0.2-1.9c-0.1-0.6-0.3-1-0.6-1.3c-0.3-0.3-0.6-0.5-0.9-0.5
		c-0.4,0-0.9,0.3-1.2,0.9c-0.4,0.6-0.7,1.5-0.9,2.8c-0.1,0.8-0.2,1.6-0.2,2.3c0,0.7,0.1,1.4,0.2,1.9c0.1,0.5,0.3,1,0.6,1.3
		C90.9,18.8,91.2,18.9,91.6,18.9z"/>
	<path class="st1" d="M100.5,19.6c-0.9,0-1.6-0.3-2.1-0.8c-0.5-0.5-0.9-1.2-1-2c-0.2-0.8-0.2-1.7,0-2.7c0.2-1.1,0.5-2,1.1-2.8
		c0.5-0.8,1.1-1.5,1.9-1.9c0.7-0.5,1.5-0.7,2.4-0.7c0.9,0,1.6,0.2,2.1,0.7c0.5,0.5,0.9,1.1,1.1,2c0.2,0.8,0.2,1.7,0,2.8
		c-0.2,1.2-0.6,2.2-1.2,3c-0.6,0.8-1.2,1.4-2,1.8C102,19.4,101.3,19.6,100.5,19.6z M101.4,18.9c0.5,0,1-0.3,1.3-1
		c0.4-0.7,0.7-1.6,0.8-2.7c0.1-0.8,0.2-1.5,0.2-2.3c0-0.7-0.1-1.4-0.2-1.9c-0.1-0.6-0.3-1-0.6-1.3s-0.6-0.5-0.9-0.5
		c-0.4,0-0.9,0.3-1.2,0.9c-0.4,0.6-0.7,1.5-0.9,2.8c-0.1,0.8-0.2,1.6-0.2,2.3c0,0.7,0.1,1.4,0.2,1.9c0.1,0.5,0.3,1,0.6,1.3
		C100.7,18.8,101,18.9,101.4,18.9z"/>
</g>
</svg>
